HIERARCHY
ROOT Hips
{
	OFFSET 0.000000 0.000000 0.000000
	CHANNELS 6 Xposition Yposition Zposition Zrotation Yrotation Xrotation 
	JOINT LHipJoint
	{
		OFFSET 0.000000 0.000000 0.000000
		CHANNELS 3 Zrotation Yrotation Xrotation
		JOINT LeftUpLeg
		{
			OFFSET 1.363060 -1.794630 0.839290
			CHANNELS 3 Zrotation Yrotation Xrotation
			JOINT LeftLeg
			{
				OFFSET 2.448110 -6.726130 0.000000
				CHANNELS 3 Zrotation Yrotation Xrotation
				JOINT LeftFoot
				{
					OFFSET 2.562200 -7.039590 0.000000
					CHANNELS 3 Zrotation Yrotation Xrotation
					JOINT LeftToeBase
					{
						OFFSET 0.157640 -0.433110 2.322550
						CHANNELS 3 Zrotation Yrotation Xrotation
						End Site
						{
							OFFSET 0.000000 0.000000 0.000000
						}
					}
				}
			}
		}
	}
	JOINT RHipJoint
	{
		OFFSET 0.000000 0.000000 0.000000
		CHANNELS 3 Zrotation Yrotation Xrotation
		JOINT RightUpLeg
		{
			OFFSET -1.305520 -1.794630 0.839290
			CHANNELS 3 Zrotation Yrotation Xrotation
			JOINT RightLeg
			{
				OFFSET -2.542530 -6.985550 0.000000
				CHANNELS 3 Zrotation Yrotation Xrotation
				JOINT RightFoot
				{
					OFFSET -2.568260 -7.056230 0.000000
					CHANNELS 3 Zrotation Yrotation Xrotation
					JOINT RightToeBase
					{
						OFFSET -0.164730 -0.452590 2.363150
						CHANNELS 3 Zrotation Yrotation Xrotation
						End Site
						{
							OFFSET 0.000000 0.000000 0.000000
						}
					}
				}
			}
		}
	}
}
MOTION
Frames: 25
Frame Time: 0.008333
2.468452 16.037992 2.251121 -13.442725 -80.958837 32.084014 -12.162358 -0.881640 2.321341 4.985814 7.121991 -48.174057 -0.526722 2.979441 46.809059 2.538103 12.788326 -7.886442 0.306301 0.000000 -67.803100 9.022150 1.234177 -1.922764 -1.866166 -16.874339 -31.278590 1.171447 -1.672747 35.170700 -2.227425 -11.634368 -1.882037 -1.787900 -0.000000 -82.445799
2.430025 16.060178 2.281299 -9.505262 -78.181382 28.566055 -11.919171 -0.701818 2.809433 4.893456 5.229962 -48.874914 -0.507988 2.827726 45.902349 2.383114 11.753136 -7.723394 0.326400 0.000000 -67.753100 9.249173 1.219034 -2.032669 -2.141141 -17.814122 -29.956333 1.170921 -1.553740 33.986970 -2.383098 -12.620974 -1.512110 -2.021500 -0.000000 -82.376599
2.387844 16.088368 2.310307 -6.354412 -75.254175 25.906547 -11.688605 -0.529420 3.322149 4.712642 3.235809 -49.553053 -0.496858 2.652982 44.786759 2.214309 10.674121 -7.388029 0.371600 -0.000000 -67.729200 9.456017 1.171680 -2.120829 -2.477239 -18.800904 -28.574932 1.174888 -1.426096 32.609514 -2.542536 -13.642986 -1.041878 -2.302200 0.000000 -82.217200
2.342021 16.122070 2.338653 -3.722090 -72.207918 23.838194 -11.457781 -0.349224 3.859803 4.454374 1.146189 -50.192561 -0.495983 2.461004 43.450907 2.032933 9.564839 -6.865045 0.435400 0.000000 -67.749700 9.655639 1.108705 -2.192871 -2.865725 -19.838136 -27.143693 1.178135 -1.286722 31.046168 -2.706109 -14.711861 -0.448428 -2.644200 -0.000000 -82.190200
2.293026 16.160685 2.366804 -1.454489 -69.070028 22.204958 -11.215925 -0.153603 4.418966 4.131321 -1.032449 -50.770216 -0.507159 2.255653 41.885860 1.841019 8.443842 -6.143438 0.510100 -0.000000 -67.824701 9.858856 1.041514 -2.255670 -3.300874 -20.929194 -25.672150 1.178405 -1.136406 29.321378 -2.871170 -15.817874 0.264711 -3.052700 0.000000 -82.096501
2.241402 16.203505 2.395261 0.540922 -65.868360 20.910861 -10.954948 0.059948 4.994804 3.760009 -3.294279 -51.260821 -0.531481 2.039967 40.087203 1.641800 7.335485 -5.217600 0.587400 -0.000000 -67.960100 10.073992 0.978512 -2.317037 -3.777228 -22.079678 -24.170739 1.174406 -0.977156 27.453402 -3.034939 -16.953901 1.107777 -3.536400 -0.000001 -81.993000
2.188076 16.249761 2.424527 2.321014 -62.635724 19.892472 -10.669833 0.289314 5.580254 3.360903 -5.628751 -51.638461 -0.569747 1.816843 38.056500 1.439671 6.269161 -4.088477 0.660200 -0.000000 -68.152000 10.306412 0.925860 -2.385783 -4.290769 -23.292250 -22.649361 1.166214 -0.812257 25.465098 -3.193157 -18.103820 2.083546 -4.100100 0.000001 -81.879400
2.134149 16.298634 2.454998 3.921729 -59.410518 19.103721 -10.358788 0.528468 6.166765 2.958083 -8.020516 -51.879552 -0.622265 1.589097 35.803598 1.240302 5.279101 -2.765376 0.723600 -0.000000 -68.386900 10.558234 0.887636 -2.470656 -4.837444 -24.564273 -21.119034 1.155113 -0.645802 23.383402 -3.340358 -19.242615 3.186373 -4.742000 0.000000 -81.700501
2.080943 16.349297 2.486966 5.366031 -56.237373 18.508952 -10.023585 0.768184 6.744821 2.578760 -10.448581 -51.966696 -0.688590 1.359452 33.347789 1.050361 4.402441 -1.266241 0.777099 -0.000000 -68.640200 10.828228 0.865837 -2.579080 -5.413302 -25.886363 -19.589143 1.142250 -0.481521 21.229339 -3.472177 -20.351539 4.418708 -5.462300 -0.000000 -81.581500
2.029845 16.400935 2.520524 6.667701 -53.165097 18.078716 -9.669282 0.997377 7.304712 2.252215 -12.885981 -51.892067 -0.767076 1.130438 30.720182 0.877041 3.676596 0.381603 0.825500 -0.000001 -68.878400 11.111803 0.859791 -2.715992 -6.011898 -27.240758 -18.072468 1.130233 -0.323618 19.035637 -3.582942 -21.396277 5.757703 -6.244401 0.000000 -81.389500
1.982122 16.452726 2.555620 7.836086 -50.244811 17.787533 -9.303918 1.204579 7.836760 2.007085 -15.300642 -51.659293 -0.854616 0.904316 27.963728 0.727426 3.136181 2.141467 0.879300 0.000000 -69.062400 11.401931 0.866559 -2.882442 -6.624903 -28.601802 -16.581783 1.120923 -0.175201 16.828418 -3.669324 -22.352978 7.187145 -7.072500 0.000000 -81.145200
1.939279 16.503961 2.592038 8.871952 -47.526243 17.611093 -8.937773 1.379368 8.331306 1.867123 -17.656397 -51.283596 -0.946373 0.683344 25.133250 0.607605 2.808664 3.968999 0.953800 0.000000 -69.151001 11.689569 0.881368 -3.076436 -7.241416 -29.940656 -15.131456 1.116542 -0.038957 14.636114 -3.728623 -23.195397 8.681618 -7.921900 -0.000001 -80.841800
1.902409 16.554026 2.629495 9.772963 -45.057180 17.532976 -8.584091 1.514230 8.778539 1.850439 -19.906869 -50.792789 -1.036247 0.470146 22.294309 0.521284 2.705800 5.813354 1.065200 0.000000 -69.109500 11.964432 0.896020 -3.288239 -7.839778 -31.204613 -13.733807 1.115487 0.085198 12.471301 -3.764149 -23.931509 10.229732 -8.783400 -0.000000 -80.531900
1.872439 16.602255 2.667382 10.543350 -42.873345 17.525732 -8.253361 1.606198 9.170630 1.951213 -22.011440 -50.217317 -1.119039 0.267318 19.518478 0.469679 2.826020 7.619891 1.228199 -0.000000 -68.908700 12.219151 0.905459 -3.511544 -8.412534 -32.381197 -12.411014 1.122055 0.194317 10.375038 -3.772191 -24.517465 11.785660 -9.610599 -0.000000 -80.149800
1.850081 16.648158 2.705084 11.182900 -41.003205 17.568913 -7.956838 1.656182 9.500789 2.149260 -23.921500 -49.590452 -1.190699 0.078108 16.880095 0.450258 3.144433 9.333355 1.449800 0.000001 -68.537000 12.446622 0.903932 -3.736352 -8.946617 -33.450813 -11.185968 1.139686 0.287048 8.383169 -3.750945 -24.915849 13.300131 -10.353800 -0.000000 -79.592700
1.835775 16.691559 2.742150 11.686601 -39.470858 17.654075 -7.707502 1.667813 9.760871 2.410175 -25.575113 -48.946529 -1.248942 -0.093613 14.451013 0.456476 3.608609 10.902326 1.722800 -0.000000 -68.005500 12.640967 0.883059 -3.941718 -9.411964 -34.337825 -10.065326 1.158232 0.367890 6.476029 -3.715126 -25.207419 14.799698 -11.049500 0.000000 -79.099000
1.829647 16.732151 2.777954 12.059244 -38.283435 17.764195 -7.512412 1.647875 9.948669 2.680838 -26.926246 -48.309295 -1.295101 -0.245022 12.292351 0.479729 4.155046 12.281501 2.029000 -0.000001 -67.342600 12.799615 0.841385 -4.119185 -9.801370 -35.043012 -9.073763 1.181170 0.435533 4.690610 -3.662872 -25.356690 16.234806 -11.652300 -0.000000 -78.586101
1.831244 16.769703 2.811835 12.316405 -37.440717 17.883891 -7.374579 1.603522 10.063923 2.904142 -27.940078 -47.691705 -1.333162 -0.375001 10.441856 0.510991 4.719525 13.441890 2.343299 0.000000 -66.592000 12.923769 0.780304 -4.258361 -10.113643 -35.553804 -8.227147 1.206335 0.490422 3.043357 -3.597962 -25.368456 17.587209 -12.148900 -0.000000 -78.021400
1.840301 16.804373 2.843522 12.458277 -36.938608 18.016831 -7.299007 1.540717 10.106364 3.043021 -28.583771 -47.111061 -1.365410 -0.482496 8.924899 0.541127 5.231915 14.365976 2.632400 -0.000000 -65.816800 13.012684 0.696923 -4.342284 -10.324032 -35.804250 -7.521571 1.219995 0.538447 1.490759 -3.537704 -25.359187 18.898264 -12.615000 0.000000 -77.696500
1.855404 16.835507 2.872018 12.536920 -36.744725 18.119296 -7.270231 1.464945 10.089419 3.051327 -28.900307 -46.552943 -1.400090 -0.571824 7.722545 0.567006 5.682758 15.062792 2.888100 0.000000 -65.059100 13.074435 0.615693 -4.399224 -10.513950 -35.988738 -7.016916 1.255190 0.564776 0.211692 -3.446861 -25.033227 19.991520 -12.810000 -0.000000 -77.012500
1.876371 16.863933 2.897791 12.523738 -36.854542 18.242531 -7.300956 1.378322 10.006320 2.954290 -28.854453 -46.058632 -1.432028 -0.640509 6.842599 0.581481 6.001933 15.537676 3.073700 0.000000 -64.394500 13.104432 0.514842 -4.384070 -10.582826 -35.841521 -6.638194 1.258315 0.592889 -1.043957 -3.385812 -24.864666 21.103953 -13.096500 -0.000000 -76.829000
1.901326 16.888836 2.919879 12.485727 -37.212423 18.333565 -7.366230 1.283072 9.876475 2.736846 -28.541895 -45.609998 -1.468875 -0.694938 6.236423 0.587191 6.228857 15.824958 3.205900 -0.000001 -63.840700 13.113237 0.429466 -4.348988 -10.649741 -35.672086 -6.464057 1.281178 0.601413 -2.022546 -3.300804 -24.412469 21.994626 -13.124000 0.000000 -76.405400
1.929497 16.910732 2.938512 12.411789 -37.792274 18.431184 -7.469086 1.178714 9.696819 2.442872 -27.975071 -45.240853 -1.505286 -0.734124 5.888770 0.582312 6.338844 15.948714 3.272100 0.000000 -63.441000 13.100702 0.345285 -4.269108 -10.652048 -35.309049 -6.424972 1.286554 0.607221 -2.917797 -3.233273 -24.017673 22.828983 -13.158300 -0.000001 -76.211700
1.959389 16.929254 2.953213 12.344740 -38.536581 18.508814 -7.589665 1.065047 9.482087 2.086065 -27.244630 -44.947059 -1.544290 -0.762723 5.753116 0.570875 6.377036 15.947626 3.295500 -0.000000 -63.192300 13.075620 0.285179 -4.182940 -10.660969 -34.963057 -6.564319 1.306324 0.598594 -3.588103 -3.152896 -23.429234 23.481902 -13.002601 0.000000 -75.981700
1.989951 16.944646 2.964113 12.280809 -39.407748 18.597376 -7.726051 0.940929 9.230644 1.701664 -26.376053 -44.755457 -1.582244 -0.779932 5.815447 0.552363 6.333749 15.844350 3.273000 -0.000001 -63.100300 13.041380 0.237526 -4.076238 -10.633686 -34.520322 -6.816728 1.313714 0.588415 -4.193682 -3.089334 -22.905764 24.081336 -12.862700 -0.000000 -76.038400
